# xmcd
#
# Track frame offsets:
#	150
#	20017
#	39009
#	59066
#	67165
#	91272
#	114754
#	133876
#	146006
#	164335
#
# Disc length: 2611 seconds
#
# Revision: 3
# Processed by: cddbd v1.5.2PL0 Copyright (c) Steve Scherf et al.
# Submitted via: audiograbber 1.83.01
#
DISCID=8c0a310a
DTITLE=George Michael - Songs from the last century
DYEAR=1999
DGENRE=Pop
TTITLE0=Brother can you spare a dime
TTITLE1=Roxanne
TTITLE2=You've changed
TTITLE3=My baby just cares for me
TTITLE4=The first time ever I saw your face
TTITLE5=Miss Sarajevo
TTITLE6=I remember you
TTITLE7=Secret love
TTITLE8=Wild is the wind
TTITLE9=Where or when
EXTD=
EXTT0=
EXTT1=
EXTT2=
EXTT3=
EXTT4=
EXTT5=
EXTT6=
EXTT7=
EXTT8=
EXTT9=
PLAYORDER=
